# xmcd CD database file
#
# Track frame offsets:
#	150
#	24352
#	51040
#	80540
#	103247
#	128187
#	159457
#	181540
#	202595
#	232515
#	258740
#
# Disc length: 3825 seconds
#
# Revision: 0
# Processed by: cddbd v1.5.2PL0 Copyright (c) Steve Scherf et al.
# Submitted via: CDex 1.70beta2
#
DISCID=7b0eef0b
DTITLE=Hiruth Girma - Hiruth
DYEAR=2001
DGENRE=World: African
TTITLE0=Wusheten New
TTITLE1=Nefs Neh
TTITLE2=Wegen Zemedochen
TTITLE3=Be-Aman Lidder
TTITLE4=Alchilim
TTITLE5=Min Tayeh
TTITLE6=Liheed Lisededew
TTITLE7=Min Yilutal
TTITLE8=Moochi Belegn
TTITLE9=Shimoonmoon
TTITLE10=Tagnaleh Alu
EXTD=YEAR: 2001
EXTT0=
EXTT1=
EXTT2=
EXTT3=
EXTT4=
EXTT5=
EXTT6=
EXTT7=
EXTT8=
EXTT9=
EXTT10=
PLAYORDER=
